<?xml version="1.0" encoding="UTF-8"?>
<!DOCTYPE xmeml>
<xmeml version="5">
  <sequence>
    <name>1PWF92_EKCEA6A8NZ_fc</name>
    <duration>12060</duration>
    <rate>
      <timebase>30</timebase>
      <ntsc>FALSE</ntsc>
    </rate>
    <media>
      <video>
        <track>
          <clipitem>
            <name>Motion Clip 1</name>
            <in>00:00:01:00</in>
            <out>00:00:12:00</out>
            <comment>Duration: 11.0s, Motion: 5.64</comment>
            <marker>
              <name>Clip 1</name>
              <in>00:00:01:00</in>
              <out>00:00:12:00</out>
              <comment>Motion Score: 5.64</comment>
            </marker>
          </clipitem>
          <clipitem>
            <name>Motion Clip 2</name>
            <in>00:00:29:00</in>
            <out>00:00:49:00</out>
            <comment>Duration: 20s, Motion: 7.71</comment>
            <marker>
              <name>Clip 2</name>
              <in>00:00:29:00</in>
              <out>00:00:49:00</out>
              <comment>Motion Score: 7.71</comment>
            </marker>
          </clipitem>
          <clipitem>
            <name>Motion Clip 3</name>
            <in>00:00:58:00</in>
            <out>00:01:09:00</out>
            <comment>Duration: 11.0s, Motion: 8.6</comment>
            <marker>
              <name>Clip 3</name>
              <in>00:00:58:00</in>
              <out>00:01:09:00</out>
              <comment>Motion Score: 8.6</comment>
            </marker>
          </clipitem>
          <clipitem>
            <name>Motion Clip 4</name>
            <in>00:01:29:00</in>
            <out>00:01:43:00</out>
            <comment>Duration: 14.0s, Motion: 8.75</comment>
            <marker>
              <name>Clip 4</name>
              <in>00:01:29:00</in>
              <out>00:01:43:00</out>
              <comment>Motion Score: 8.75</comment>
            </marker>
          </clipitem>
          <clipitem>
            <name>Motion Clip 5</name>
            <in>00:01:46:00</in>
            <out>00:02:06:00</out>
            <comment>Duration: 20s, Motion: 8.67</comment>
            <marker>
              <name>Clip 5</name>
              <in>00:01:46:00</in>
              <out>00:02:06:00</out>
              <comment>Motion Score: 8.67</comment>
            </marker>
          </clipitem>
          <clipitem>
            <name>Motion Clip 6</name>
            <in>00:02:38:00</in>
            <out>00:02:58:00</out>
            <comment>Duration: 20s, Motion: 6.81</comment>
            <marker>
              <name>Clip 6</name>
              <in>00:02:38:00</in>
              <out>00:02:58:00</out>
              <comment>Motion Score: 6.81</comment>
            </marker>
          </clipitem>
          <clipitem>
            <name>Motion Clip 7</name>
            <in>00:03:49:00</in>
            <out>00:04:09:00</out>
            <comment>Duration: 20s, Motion: 7.52</comment>
            <marker>
              <name>Clip 7</name>
              <in>00:03:49:00</in>
              <out>00:04:09:00</out>
              <comment>Motion Score: 7.52</comment>
            </marker>
          </clipitem>
          <clipitem>
            <name>Motion Clip 8</name>
            <in>00:04:09:00</in>
            <out>00:04:23:00</out>
            <comment>Duration: 14.0s, Motion: 7.52</comment>
            <marker>
              <name>Clip 8</name>
              <in>00:04:09:00</in>
              <out>00:04:23:00</out>
              <comment>Motion Score: 7.52</comment>
            </marker>
          </clipitem>
          <clipitem>
            <name>Motion Clip 9</name>
            <in>00:04:31:00</in>
            <out>00:04:43:00</out>
            <comment>Duration: 12.0s, Motion: 7.03</comment>
            <marker>
              <name>Clip 9</name>
              <in>00:04:31:00</in>
              <out>00:04:43:00</out>
              <comment>Motion Score: 7.03</comment>
            </marker>
          </clipitem>
          <clipitem>
            <name>Motion Clip 10</name>
            <in>00:06:11:00</in>
            <out>00:06:29:00</out>
            <comment>Duration: 18.0s, Motion: 10.09</comment>
            <marker>
              <name>Clip 10</name>
              <in>00:06:11:00</in>
              <out>00:06:29:00</out>
              <comment>Motion Score: 10.09</comment>
            </marker>
          </clipitem>
          <clipitem>
            <name>Motion Clip 11</name>
            <in>00:06:31:00</in>
            <out>00:06:42:00</out>
            <comment>Duration: 11.0s, Motion: 4.89</comment>
            <marker>
              <name>Clip 11</name>
              <in>00:06:31:00</in>
              <out>00:06:42:00</out>
              <comment>Motion Score: 4.89</comment>
            </marker>
          </clipitem>
        </track>
      </video>
    </media>
  </sequence>
</xmeml>
